# xmcd CD database file
#
# Track frame offsets:
#	150
#	2776
#	35004
#	56090
#	75849
#	101100
#	127762
#	131878
#	153583
#	162515
#	190944
#	222169
#	226642
#
# Disc length: 3631 seconds
#
# Revision: 0
# Processed by: cddbd v1.5.2PL0 Copyright (c) Steve Scherf et al.
# Submitted via: CDex 1.70beta2
#
DISCID=a60e2d0d
DTITLE=MANGOO - NEVERLAND
DYEAR=2012
DGENRE=Stoner
TTITLE0=INTRO
TTITLE1=NEVERLAND
TTITLE2=DEATHMINT
TTITLE3=DIAMOND IN THE ROUGH
TTITLE4=YOU
TTITLE5=LOSE YOURSELF
TTITLE6=INTERLUDE
TTITLE7=YOU, ROBOT
TTITLE8=MOOM
TTITLE9=PAINTED BLACK
TTITLE10=HOOKS
TTITLE11=HOME
TTITLE12=DATZUN
EXTD=YEAR: 2012
EXTT0=
EXTT1=
EXTT2=
EXTT3=
EXTT4=
EXTT5=
EXTT6=
EXTT7=
EXTT8=
EXTT9=
EXTT10=
EXTT11=
EXTT12=
PLAYORDER=
